<svg width="642" height="160" viewBox="0 0 642 160" fill="none" xmlns="http://www.w3.org/2000/svg">
<path d="M157.3 123C147.8 123 147 120.6 145.8 111.4C145 107 145 95 145 84.6V7C145 1.4 142.9 0 139.4 0C135.1 0 120.5 3.8 114.2 5.4C112.6 5.8 112 6.6 112 7.4C112 8.2 112.6 9 114.2 9H118.2C126.9 9 128.1 13 128.1 29.4V84.6C128.1 95 127.7 107 127.3 111.4C126.6 119 125.4 122.2 119.7 123.1C110.9 123.8 106.5 116.1 98.5 93.3L68.7 9.8C67.9 7.4 67.1 7 64.3 7H38.6C37 7 36.2 8.2 36.2 9.4C36.2 10.2 37 11.4 38.2 11.4C43.8 11.4 48.6 11.4 50.2 16.6L53.8 24.6L21 104.5C15.4 118.1 11.8 123.4 2.5 123.4C0.9 123.4 0 124.2 0 125C0 125.8 1.3 126.9 3.8 127H42C44.4 127 45 126.2 45 125C45 124.2 44.4 123 42.8 123C30.5 123 26.9 119.8 26.9 115.5C26.9 114.3 27.3 113.1 27.7 111.9L39.2 81H74.9L82 101.2C84 107.9 85.6 112.3 85.6 115.9C85.6 121.5 81.6 122.6 71.7 122.6C69.7 122.6 69 123.8 69 125C69 126.2 69.8 127 71.3 127H115H121.7H157.7C159.3 127 160.1 125.8 160.1 125C160.1 124.2 159.2 123 157.3 123ZM40.7 75L57.1 32.2L72.3 75H40.7Z" fill="black"/>
<path d="M69.5 67.1C68.7 67.1 68.3 67.5 67.5 68.7C61.4 82.5 53.3 85 43.5 85C29.3 85 19.5 70.8 19.5 48.4C19.5 19.9 26 4.9 40.2 4.9C52.4 4.9 54.8 18.7 56.1 28.5C62.6 28.5 70.3 26.1 70.3 16.7C70.3 2.5 53.2 -3.8147e-07 43.5 -3.8147e-07C18.3 -3.8147e-07 6.10352e-06 16.3 6.10352e-06 52.5C6.10352e-06 84.6 17.5 97.6 36.6 97.6C60.6 97.6 70.8 79.3 70.8 69.5C70.8 67.9 70.4 67.1 69.5 67.1Z" transform="translate(159.1 31.3999)" fill="black"/>
<path d="M100.7 123C91.8 123 88.5 120.6 88.5 111.4V55.4C88.5 41.8 80.5 31.8 67.8 31.8C56.6 31.8 48.7 38.6 38.7 47L33.5 51.4V7C33.5 1.4 31.2 0 27.6 0C23.2 0 8.79999 3.8 2.39999 5.4C0.799994 5.8 0 6.6 0 7.4C0 8.2 0.799994 9 2.39999 9H7C15.4 9 16.5 13 16.5 29.4V84.6C16.5 95 16.1 107 15.7 111.4C14.9 120.6 12.7 123 4.3 123C2.4 123 1.60001 123.8 1.60001 125C1.60001 126.2 2.39999 127 3.89999 127H45.2C46.7 127 47.5 125.8 47.5 125C47.5 124.2 46.7 123 44.8 123C35.7 123 34.4 120.6 33.2 111.4C32.5 107 32.5 95 32.5 84.6V57.4C43.8 48.6 49.8 43 57.1 43C65.2 43 70 48.2 70 81C70 117.8 66.8 123 58.4 123C56.4 123 55.6 123.8 55.6 125C55.6 126.2 56.4 127 58 127H101.1C102.7 127 103.5 125.8 103.5 125C103.5 124.2 102.7 123 100.7 123Z" transform="translate(226.5)" fill="black"/>
<path d="M72.3 30C72.3 6.8 55.5 -3.8147e-07 42.7 -3.8147e-07C14.3 -3.8147e-07 0 22 0 50.8C0 81.2 16.3 96 39.5 96C63.1 96 72.3 79.2 72.3 69.6C72.3 68.4 71.9 67.6 71.1 67.6C70.7 67.6 69.9 68 69.5 68.8C63.5 80.8 56.3 84 45.9 84C29.1 84 18.3 67.2 18.3 37.6H62.7C69.5 37.6 72.3 35.6 72.3 30ZM47.1 32L18.7 34C20.3 18.8 26.7 5.2 39.5 5.2C48.7 5.2 53.1 12 53.1 26.4C53.1 29.6 52.3 31.6 47.1 32Z" transform="translate(328 31.3999)" fill="black"/>
<path d="M152.1 93.1C143.3 93.1 139.9 91.1 139.9 81.5V25.3C139.9 11.7 133.1 1.6 120 1.6C108.8 1.6 102.9 6.5 92.5 14.9L86.1 19.6C84.5 8 77.7 0 66.2 0C55 0 48.7 6.8 38.7 15.2L33.9 19.2C33.9 15.6 33.9 11.6 33.9 9.6C33.9 4.4 31.5 2 27.9 2C22.7 2 6.10352e-06 5.6 6.10352e-06 8.8C6.10352e-06 9.6 0.400006 10.4 2.00001 10.4H6.60001C16.9 10.5 16.9 26.2 16.9 45.8V53.5C16.9 84.8 16.9 93.1 3.9 93.1C1.9 93.1 1.10001 94.3 1.10001 95.5C1.10001 96.7 1.90001 97.5 3.50001 97.5H46.6C48.2 97.5 49 96.3 49 95.5C48.9 94 48.1 93.1 46.2 93.1C36.7 93 35.9 89.7 34.8 80C34.4 75.6 34 64.3 34 53.9V47.1C34 39.5 34 32 34 26.8C44.8 18 49.9 12.8 56.7 12.8C64.3 12.8 68.7 17.2 68.7 50.4C68.7 87.6 65.9 93.2 56.7 93.2C54.7 93.2 54 94.4 54 95.6C54 96.8 54.7 97.5 56.3 97.6H99.5C101.1 97.6 101.9 96.4 101.9 95.6C101.9 94.4 101.1 93.2 99.1 93.2C90.3 93.2 86.9 90.8 86.9 81.2V27.2C97.7 18.4 102.8 13.2 109.6 13.2C117.2 13.2 121.6 17.6 121.6 50.8C121.6 88 118.8 93.2 109.6 93.2C107.6 93.2 106.9 94.4 106.9 95.6C106.9 96.8 107.6 97.6 109.2 97.6H152.5C154.1 97.6 154.9 96.4 154.9 95.6C154.9 94.3 154.1 93.1 152.1 93.1Z" transform="translate(400.1 29.5)" fill="black"/>
<path d="M96.1 0H61.6C59.6 0 58.8 0.799998 58.8 1.6C58.8 2.4 60 3.6 61.6 3.6C69.6 3.6 73.8 6.4 73.8 10.8C73.8 11.6 73.4 12.8 73 14.4L56.3 72.8L32 12.8C31.6 11.6 31.2 10.4 31.2 9.6C31.2 6 34.6 3.6 41 3.6C43 3.6 43.8 2.4 43.8 1.6C43.8 0.799998 43 0 42.2 0H2.8C0.8 0 1.2207e-05 1.2 1.2207e-05 2.4C1.2207e-05 3.6 0.799976 4.4 2.39998 4.4C9.19998 4.4 11.1 8.8 19.1 27.2L48.3 94L43.1 106.4C40.7 112 38.7 114.8 31.9 114.8C25.9 114.8 22.7 110.8 21.5 108.8C18.7 109.6 16.7 112 16.7 116.4C16.7 122 20.8 129 30.8 129C40.8 129 45.5 121.6 48.3 113.2L79.4 24C84.6 9.6 90.2 3.9 97 3.6C98.3 3.5 98.8 2.6 98.8 2C98.8 1.2 98.5 0 96.1 0Z" transform="translate(543.2 31)" fill="black"/>
</svg>
