<svg xmlns="http://www.w3.org/2000/svg" viewBox="0 0 206 52.2"><path d="M51.8 41.6c-7.1 0-12.8-5.8-12.8-12.8v-8.6c0-7.1-5.8-12.8-12.8-12.8-7.1 0-12.8 5.8-12.8 12.8v1.7l-1.4.4c-3.5.9-6 4.1-6 7.7 0 4.4 3.6 7.9 7.9 7.9h20.9c1 0 1.8.8 1.8 1.8s-.8 1.8-1.8 1.8H14c-6.4 0-11.6-5.2-11.6-11.6 0-4.8 3-9.1 7.4-10.8.5-8.6 7.7-15.5 16.5-15.5 9.1 0 16.5 7.4 16.5 16.5v8.6c0 5.1 4.1 9.2 9.2 9.2s9.2-4.1 9.2-9.2-4.1-9.2-9.2-9.2c-1 0-2 .2-2.9.5-1 .3-2-.2-2.3-1.1-.3-1 .2-2 1.1-2.3 1.3-.4 2.7-.7 4.1-.7 7.1 0 12.8 5.8 12.8 12.8-.1 7.1-5.9 12.9-13 12.9zm40.9-8.3c0 1.6-.1 2.4-.4 3.2-1 3.1-3.9 5.4-7.4 5.4-4.3 0-7.8-3.3-7.8-7.6V17.9c0-.8.6-1.5 1.5-1.5h.5c.8 0 1.5.6 1.5 1.5v6.3c0 .2.1.3.3.3.1 0 .1 0 .2-.1.7-.4 2.1-1.2 3.7-1.2 3.5 0 6.5 2.3 7.4 5.4.2.8.4 1.6.4 3.2v1.5h.1zM89.1 32c0-1.3 0-1.8-.2-2.5-.5-1.8-2.1-3.1-4-3.1-1.3 0-2.4.6-3.6 1.3-.4.2-.6.6-.6 1v5.8c0 2.3 1.9 4.2 4.2 4.2 1.9 0 3.5-1.3 4-3.1.2-.6.2-1.1.2-2.5V32zm11.1-13.9c0 1.2-1 2.2-2.2 2.2h-.3c-1.2 0-2.2-1-2.2-2.2v-.3c0-1.2 1-2.2 2.2-2.2h.3c1.2 0 2.2 1 2.2 2.2v.3zm-.6 21.8c0 .8-.6 1.5-1.5 1.5h-.5c-.8 0-1.5-.7-1.5-1.5V25.2c0-.8.7-1.5 1.5-1.5h.5c.8 0 1.5.7 1.5 1.5v14.7zm17.6-3.4c-.2-.8-.4-1.5-.4-3.2v-1.5c0-1.6.1-2.4.4-3.2 1-3.1 3.9-5.4 7.4-5.4 3.5 0 6.5 2.3 7.4 5.4.2.8.4 1.6.4 3.2v1.5c0 1.6-.1 2.4-.4 3.2-1 3.1-3.9 5.4-7.4 5.4-3.5 0-6.4-2.3-7.4-5.4zm3.4-7c-.2.6-.2 1.1-.2 2.5v1.1c0 1.3 0 1.8.2 2.5.5 1.8 2.1 3.1 4 3.1s3.5-1.3 4-3.1c.2-.6.2-1.1.2-2.5V32c0-1.3 0-1.8-.2-2.5-.5-1.8-2.1-3.1-4-3.1s-3.5 1.4-4 3.1zm14.5 7c-.2-.8-.4-1.5-.4-3.2v-1.5c0-1.6.1-2.4.4-3.2 1-3.1 3.9-5.4 7.4-5.4 1.8 0 2.9.7 3.7 1.1l.9.6c.1 0 .2.1.2.1.2 0 .3-.1.3-.2.1-.6.6-1.1 1.3-1.1.8 0 1.3.6 1.3 1.3v17.3c0 3.5-2.8 6.2-6.3 6.2h-2.7c-.8 0-1.5-.7-1.5-1.5v-.2c0-.8.7-1.5 1.5-1.5h2.7c1.5 0 2.7-1.2 2.7-2.7v-1.7c0-.2-.1-.3-.3-.3-.1 0-.1 0-.2.1-.5.4-2.1 1.2-3.7 1.2-3.4 0-6.4-2.3-7.3-5.4zm3.4-7c-.2.6-.2 1.1-.2 2.5v1.1c0 1.3 0 1.8.2 2.5.5 1.8 2.1 3.1 4 3.1.9 0 1.7-.3 2.6-.8l1.1-.6c.5-.3.5-.5.5-.8v-7.7c0-.4 0-.5-.5-.8-.9-.5-2.5-1.5-3.7-1.5-1.9-.1-3.5 1.3-4 3zm18.9-.8v11.2c0 .8-.6 1.5-1.5 1.5h-.5c-.8 0-1.5-.7-1.5-1.5V25c0-.8.5-1.3 1.3-1.3.7 0 1.2.4 1.3 1.1 0 .2.1.2.3.2.1 0 .1 0 .2-.1l.9-.6c.8-.4 1.9-1.1 3.7-1.1.8 0 1.5.7 1.5 1.5v.2c0 .8-.7 1.5-1.5 1.5-1.3 0-2.8.9-3.7 1.5-.5.3-.5.4-.5.8zm21 11.4c0 .8-.5 1.3-1.3 1.3s-1.3-.6-1.3-1.3c0-.2-.1-.3-.3-.3-.1 0-.1 0-.5.2-1 .7-2.5 1.9-4.8 1.9h-.3c-3.1 0-5.7-2.4-5.7-5.6v-.2c0-3.2 2.6-5.6 5.7-5.6h4.3c.4 0 .7-.3.7-.7V29c0-1.5-1.2-2.7-2.7-2.7h-.4c-1.4 0-3.1 1.2-4.3 1.9-.2.2-.5.2-.8.2-.5 0-1-.2-1.3-.7l-.2-.3c-.2-.2-.2-.5-.2-.8 0-.5.2-1 .7-1.3 2-1.2 3.7-2.2 6.1-2.2h.4c3.5 0 6.3 2.7 6.3 6.2l-.1 10.8zm-3.6-5.9c0-.4-.3-.7-.7-.7h-4.3c-1.2 0-2.1 1-2.1 2.2v.8c0 1.2.9 2.2 2.1 2.2h.7c1.2 0 2.3-.6 3.3-1.2l.5-.3c.5-.3.5-.5.5-.8v-2.2zm28.7 5.7c0 .8-.7 1.5-1.5 1.5h-.5c-.8 0-1.5-.7-1.5-1.5V29.1c0-1.5-1.2-2.7-2.7-2.7-.7 0-1.5.4-2.4.9-.4.3-.5.4-.5.6.1.5.1.9.1 1.3v10.6c0 .8-.7 1.5-1.5 1.5h-.5c-.8 0-1.5-.7-1.5-1.5V29.1c0-1.5-1.2-2.7-2.7-2.7-.6 0-1.4.3-2.2.8-.5.4-.5.5-.5.8v11.8c0 .8-.6 1.5-1.5 1.5h-.5c-.8 0-1.5-.7-1.5-1.5V25c0-.8.5-1.3 1.3-1.3.5 0 .9.3 1.2.7.1.1.1.2.2.2s.2 0 .3-.1c.9-.6 1.9-1.2 3.2-1.2 1.6 0 3.1.5 4.2 1.6.1.1.2.1.2.1.1 0 .2 0 .3-.1.2-.1.5-.3 1-.6.9-.5 1.9-1 3.3-1 3.5 0 6.3 2.8 6.3 6.2v10.4h-.1zm-96.8 0c0 .8-.6 1.5-1.5 1.5h-.5c-.8 0-1.5-.7-1.5-1.5v-22c0-.8.7-1.5 1.5-1.5h.5c.8 0 1.5.7 1.5 1.5v22zm7.1 0c0 .8-.6 1.5-1.5 1.5h-.5c-.8 0-1.5-.7-1.5-1.5v-22c0-.8.7-1.5 1.5-1.5h.5c.8 0 1.5.7 1.5 1.5v22z" fill="#37bfbf"/></svg>