<?xml version="1.0" encoding="utf-8"?>
<!-- Generator: Adobe Illustrator 21.0.2, SVG Export Plug-In . SVG Version: 6.00 Build 0)  -->
<svg version="1.1" id="Layer_1" xmlns="http://www.w3.org/2000/svg" xmlns:xlink="http://www.w3.org/1999/xlink" x="0px" y="0px"
	 viewBox="0 0 452 157" style="enable-background:new 0 0 452 157;" xml:space="preserve">
<style type="text/css">
	.st0{fill:#111111;}
	.st1{fill:#FF0099;}
</style>
<g id="Page-1">
	<g id="Dooer-logo" transform="translate(0, -631.000000)">
		<g id="Logo" transform="translate(0.000000, 479.000000)">
			<g id="LogoTransparentBlack" transform="translate(0, 152.000000)">
				<g id="dooer-copy-19-_x2B_-dot">
					<path id="dooer-copy-19" class="st0" d="M7.4,41c-5,0-7.4,2.6-7.4,7.8v106.4h41c18.6,0,25.8-11.8,25.8-25.4V66.6
						C66.8,52.4,59.2,41,41,41H7.4z M31.7,58.8c6.6,0,8.8,5.2,8.8,13v53.8c0,7-3,12-8.8,12h-5.4V58.8H31.7z M115.3,40
						c-21.6,0-33.4,8.4-33.4,22.8v70.4c0,14.6,11.8,23,33.4,23s33.4-8.2,33.4-22.8V62.8C148.7,48.4,136.9,40,115.3,40L115.3,40z
						 M115.3,58.2c4.6,0,7.2,2.2,7.2,7.6v64.6c0,5.4-2.6,7.6-7.2,7.6c-4.8,0-7.2-2.6-7.2-7.6V65.8C108.1,60.8,110.5,58.2,115.3,58.2
						L115.3,58.2z M197.1,40c-21.6,0-33.4,8.4-33.4,22.8v70.4c0,14.6,11.8,23,33.4,23s33.4-8.2,33.4-22.8V62.8
						C230.5,48.4,218.7,40,197.1,40L197.1,40z M197.1,58.2c4.6,0,7.2,2.2,7.2,7.6v64.6c0,5.4-2.6,7.6-7.2,7.6
						c-4.8,0-7.2-2.6-7.2-7.6V65.8C189.9,60.8,192.3,58.2,197.1,58.2L197.1,58.2z M279.9,40c-21.6,0-33.4,8.2-33.4,22.8v70.6
						c0,14.4,11.8,22.8,33.4,22.8s33.4-8.4,33.4-22.8v-12.6c0-1-0.8-1.8-1.8-1.8h-23c-1,0-1.8,0.8-1.8,1.8v9.6c0,5-1.4,7.6-6.8,7.6
						s-6.8-2.4-6.8-8.6v-22.8h30.8c6.2,0,9.4-3.2,9.4-9.6V62.8C313.3,48.4,301.5,40,279.9,40L279.9,40z M279.9,58.2
						c5.4,0,6.8,2.4,6.8,8.6v22.6h-13.6V66.8C273.1,60.6,274.5,58.2,279.9,58.2L279.9,58.2z M330.1,41c-1,0-1.8,0.8-1.8,1.8v102.8
						c0,6.4,3.2,9.6,9.4,9.6h15.2c1.1,0,2-0.9,2-2V66.6c0-6.2,1.8-8.4,6.8-8.4s6.8,2.2,6.8,8.4v4.2c0,6.2,3.2,9.4,9.6,9.4h15.2
						c1,0,1.8-0.8,1.8-1.8V56.6c0-9.4-8-15.6-19.2-15.6c-9.3,0-24.4,0-30.6,0H330.1z"/>
					<circle id="dot" class="st1" cx="432" cy="20" r="20"/>
				</g>
			</g>
		</g>
	</g>
</g>
</svg>
