<?xml version="1.0" encoding="utf-8"?>
<!-- Generator: Adobe Illustrator 23.1.1, SVG Export Plug-In . SVG Version: 6.00 Build 0)  -->
<svg version="1.1" id="Layer_1" xmlns="http://www.w3.org/2000/svg" xmlns:xlink="http://www.w3.org/1999/xlink" x="0px" y="0px"
	 viewBox="0 0 755 119" style="enable-background:new 0 0 755 119;" xml:space="preserve">
<style type="text/css">
	.st0{fill:#f8284e;}
</style>
<path class="st0" d="M148.5,15.1C140.3,6.7,129.7,2,116.6,0.8c-14.2-1.2-26.5,3.7-36.1,13.8C70.9,4.3,58.8-0.4,44.3,0.8
	C31.6,2,21,6.9,13,15.1C4.3,24,0,35.7,0,50v66.5h28.7V48.4c0-6.3,1.7-11.2,5.1-15.5c3.1-3.7,7-5.4,12-5.4c5.8,0,10.6,1.6,14.7,5.4
	c3.9,3.5,5.8,7.5,5.8,12.7v71h28.9V45.3c0-5.2,1.9-9.1,5.8-12.7c4.1-3.5,8.9-5.4,14.7-5.4c5.3,0,9.2,1.9,12.3,5.6
	c3.6,4.2,5.3,9.1,5.3,15.2v68.2h28.7V50C161.7,35.7,157.1,24,148.5,15.1z"/>
<path class="st0" d="M289.7,57c0-14.1-5.5-26.9-16.6-38.4C262,7.4,248.2,1,232.8,0.1c-17.4-0.9-32.5,4.7-45.1,16.9
	c-12.5,12.2-18.8,26.7-18.3,43.6c0.2,15.9,6.5,29.8,18.8,41.2c11.8,11.2,25.8,16.9,41.2,16.9c0.2,0,0.7,0,1,0
	c12.5-0.2,24.1-3.7,34.5-11c6.3-4.5,11.8-9.8,15.9-16.2l7-10.8h-31.4c-1,0-2,0.4-2.8,1.1c-6.5,5.9-13.5,9.2-22.7,9.4
	c-0.2,0-0.2,0-0.5,0c-8.4,0-15.7-2.6-21.7-8c-4.1-3.5-7.2-7.7-8.9-12.4h90.1V57H289.7z M200.5,45.1c1.9-4,4.8-7.5,8.4-10.3
	c6-4.7,12.8-7,20.7-7c0.2,0,0.2,0,0.5,0c8.2,0,14.9,2.3,20.7,7.3c3.6,2.8,6.3,6.3,8.2,10.1H200.5z"/>
<path class="st0" d="M444.9,15.1C436.7,6.7,426.1,2,413.1,0.8c-14.2-1.2-26.5,3.7-36.1,13.8c-9.6-10.3-21.7-15-36.1-13.8
	c-13,1.2-23.6,5.9-31.6,14.3c-8.7,8.9-13,20.6-13,34.9v66.5h28.7V48.4c0-6.3,1.7-11.2,5.1-15.5c3.1-3.7,7-5.4,12-5.4
	c5.8,0,10.6,1.6,14.7,5.4c3.9,3.5,5.8,7.5,5.8,12.7v71h28.9V45.3c0-5.2,1.9-9.1,5.8-12.7c4.1-3.5,8.9-5.4,14.7-5.4
	c5.3,0,9.2,1.9,12.3,5.6c3.6,4.2,5.3,9.1,5.3,15.2v68.2h28.7V50C458.1,35.7,453.6,24,444.9,15.1z"/>
<path class="st0" d="M616,15.1C607.8,6.7,597.2,2,584.2,0.8C570-0.4,557.7,4.6,548,14.6c-9.6-10.3-21.7-15-36.1-13.8
	c-13,1.2-23.6,5.9-31.6,14.3c-8.7,8.9-13,20.6-13,34.9v66.5H496V48.4c0-6.3,1.7-11.2,5.1-15.5c3.1-3.7,7-5.4,12-5.4
	c5.8,0,10.6,1.6,14.7,5.4c3.9,3.5,5.8,7.5,5.8,12.7v71h28.9V45.3c0-5.2,1.9-9.1,5.8-12.7c4.1-3.5,8.9-5.4,14.7-5.4
	c5.3,0,9.2,1.9,12.3,5.6c3.6,4.2,5.3,9.1,5.3,15.2v68.2H629V50C629,35.7,624.7,24,616,15.1z"/>
<path class="st0" d="M737.7,18.6C726.4,7.1,712.6,1,696.5,0.6c-16.9-0.5-31.3,5.2-43.4,17.1C641,29.4,635,43.7,635,60.1
	c0,15.7,5.5,29.5,16.9,41c11.1,11.5,25.1,17.6,41.2,17.8c0.7,0,1.4,0,2.2,0c15.9,0,29.6-5.6,41.5-17.1c12-11.7,18.1-25.8,18.1-41.9
	C754.6,43.9,749,30.1,737.7,18.6z M694.5,90.8c-17.6,0-31.8-13.8-31.8-30.9s63.9-17.1,63.9,0C726.4,76.7,712.1,90.8,694.5,90.8z"/>
</svg>
