<?xml version="1.0" encoding="UTF-8" standalone="no"?>
<svg
   xmlns:dc="http://purl.org/dc/elements/1.1/"
   xmlns:cc="http://creativecommons.org/ns#"
   xmlns:rdf="http://www.w3.org/1999/02/22-rdf-syntax-ns#"
   xmlns:svg="http://www.w3.org/2000/svg"
   xmlns="http://www.w3.org/2000/svg"
   xmlns:xlink="http://www.w3.org/1999/xlink"
   xmlns:sodipodi="http://sodipodi.sourceforge.net/DTD/sodipodi-0.dtd"
   xmlns:inkscape="http://www.inkscape.org/namespaces/inkscape"
   version="1.1"
   id="Layer_1"
   x="0px"
   y="0px"
   width="556"
   height="381"
   viewBox="0 0 556 381"
   enable-background="new 0 0 595 842"
   xml:space="preserve">
<path
   style="fill:#231F20"
   id="path319-0"
   d="m 307.502,741.644 c -0.768,5.343 -5.493,5.581 -8.655,5.404 -0.223,-0.012 -0.457,-0.052 -0.646,-0.074 -0.297,-0.034 -0.318,-0.371 -0.063,-0.482 0.642,-0.282 3.809,-1.996 4.153,-5.625 0.071,-0.749 0.069,-1.793 0.069,-1.995 V 724.85 h 5.229 v 14.211 c 10e-4,1.659 -0.043,2.279 -0.087,2.583"
   clip-path="url(#SVGID_10_-1)"
   transform="matrix(7.7033502,0,0,7.7033502,-2003.2716,-5580.7845)" /><path
   style="fill:#231F20"
   id="path321-9"
   d="m 301.714,756.585 c 0.217,-5.48 4.709,-9.254 11.658,-9.254 4.815,0 16.575,0 18.678,0 0.257,0 0.321,0.164 0.178,0.437 -0.681,1.296 -2.871,5.021 -5.583,5.021 0,0 -8.608,0 -10.871,0 -6.006,0 -10.027,3.273 -11.179,6.638 -0.209,0.613 -0.801,2.075 -1.655,2.075 -1.169,0 -1.356,-1.581 -1.226,-4.917"
   clip-path="url(#SVGID_10_-1)"
   transform="matrix(7.7033502,0,0,7.7033502,-2003.2716,-5580.7845)" /><path
   style="fill:#231F20"
   id="path323-4"
   d="m 290.566,756.585 c -0.217,-5.48 -4.71,-9.254 -11.659,-9.254 -4.815,0 -16.574,0 -18.677,0 -0.257,0 -0.321,0.164 -0.178,0.437 0.679,1.296 2.872,5.021 5.582,5.021 0,0 8.609,0 10.872,0 6.006,0 10.028,3.273 11.18,6.638 0.209,0.613 0.799,2.075 1.653,2.075 1.173,0 1.358,-1.581 1.227,-4.917"
   clip-path="url(#SVGID_10_-1)"
   transform="matrix(7.7033502,0,0,7.7033502,-2003.2716,-5580.7845)" /><path
   style="fill:#231F20"
   id="path325-8"
   d="m 296.14,767.932 c 3.911,0 7.837,-2.063 9.481,-4.313 2.036,-2.792 2.405,-7.862 11.521,-7.862 h 8.123 c 0,0 0.26,0.137 0.139,0.366 -0.686,1.278 -3.147,5.495 -5.928,5.495 h -3.747 c -2.022,0 -2.494,1.386 -3.467,3.013 -2.862,5.533 -8.514,9.291 -16.123,9.291 -7.609,0 -13.259,-3.758 -16.123,-9.291 -0.973,-1.627 -1.444,-3.013 -3.467,-3.013 h -3.744 c -2.783,0 -5.245,-4.217 -5.928,-5.495 -0.124,-0.229 0.134,-0.366 0.134,-0.366 h 8.124 c 9.117,0 9.486,5.07 11.523,7.862 1.643,2.249 5.572,4.313 9.482,4.313"
   clip-path="url(#SVGID_10_-1)"
   transform="matrix(7.7033502,0,0,7.7033502,-2003.2716,-5580.7845)" /><path
   style="fill:#231F20"
   id="path327-8"
   d="m 298.005,725.539 v 3.419 c 0,0 -2.71,-1.313 -4.758,-1.313 -2.042,0 -3.586,0.726 -3.586,2.229 0,1.867 3.477,2.747 4.754,3.191 1.277,0.443 5.058,2.106 5.058,5.489 0,3.588 -1.972,6.88 -8.812,6.88 -3.602,0 -5.659,-1.117 -5.659,-1.117 v -3.382 c 1.189,0.447 3.864,1.116 5.241,1.116 2.343,0 3.755,-0.505 3.755,-2.02 0,-1.919 -3.672,-2.936 -5.09,-3.52 -1.419,-0.584 -4.673,-1.963 -4.673,-5.887 0,-4.374 3.922,-6.164 8.593,-6.164 3.174,0.002 5.177,1.079 5.177,1.079"
   clip-path="url(#SVGID_10_-1)"
   transform="matrix(7.7033502,0,0,7.7033502,-2003.2716,-5580.7845)" /></svg>