<?xml version="1.0" encoding="UTF-8" standalone="no"?>
<svg width="200" height="180" version="1.1" id="Layer_1" xmlns="http://www.w3.org/2000/svg" xmlns:xlink="http://www.w3.org/1999/xlink" x="0px" y="0px"
viewBox="0 0 133.9 123.5" style="enable-background:new 0 0 133.9 123.5;" xml:space="preserve">
<path class="st0" d="M125.7,24.5c-5.4-10-12.8-18.1-22.2-24.3l-9,13.7c7.1,4.7,12.7,10.9,17,18.6c4.2,7.6,6.2,15.6,6.2,24
c0,13.9-5,25.8-15,35.7s-21.9,15-35.7,15c-9.8,0-18.6-2.5-26.4-7.5c-5.4-4.1-9.2-9.5-11.1-16.2c-2.5-8.4-1.6-16.6,2.7-24.5
c4.3-7.8,10.7-13.1,19.1-15.5c2.8-0.8,5.7-1.3,8.6-1.3c2.5,0,5.1,0.3,7.7,1c5.5,1.4,10.5,3.9,14.8,7.6l1,0.8l0.8-1l8.8-10.2l0.9-1
l-1-0.8c-6.4-5.4-13.7-9.2-21.7-11.1c-3.7-0.8-7.4-1.3-11-1.3c-4.5,0-9,0.7-13.3,1.9c-12.5,3.7-22.1,11.5-28.5,23.3
c-0.6,1.2-1.2,2.4-1.8,3.6c0.2-8,2.3-15.5,6.3-22.7c4.3-7.7,10-13.9,17.1-18.6L30.9,0c-9.5,6.2-17,14.3-22.5,24.4
C2.8,34.5,0,45.2,0,56.4c0,18.3,6.6,34.1,19.8,47.3C33,117,48.7,123.5,67,123.5c18.3,0,34.1-6.6,47.2-19.7
c13.1-13.2,19.6-28.9,19.6-47.3C133.9,45.2,131.2,34.6,125.7,24.5z"/>
</svg>
